<?xml version="1.0" encoding="UTF-8" standalone="no"?>
<svg
   xmlns:dc="http://purl.org/dc/elements/1.1/"
   xmlns:cc="http://creativecommons.org/ns#"
   xmlns:rdf="http://www.w3.org/1999/02/22-rdf-syntax-ns#"
   xmlns:svg="http://www.w3.org/2000/svg"
   xmlns="http://www.w3.org/2000/svg"
   viewBox="0 0 1133.8583 1133.8583"
   height="1133.8583"
   width="1133.8583"
   xml:space="preserve"
   id="svg2"
   version="1.1"><metadata
     id="metadata8"><rdf:RDF><cc:Work
         rdf:about=""><dc:format>image/svg+xml</dc:format><dc:type
           rdf:resource="http://purl.org/dc/dcmitype/StillImage" /></cc:Work></rdf:RDF></metadata><defs
     id="defs6" /><g
     transform="matrix(1.3333333,0,0,-1.3333333,0,1133.8583)"
     id="g10"><g
       id="g12"><path
         id="path14"
         style="fill:#2b2b2a;fill-opacity:1;fill-rule:evenodd;stroke:none"
         d="m 425.1138,729.8382 c 168.2943,0 304.7241,-136.4298 304.7241,-304.7241 0,-168.2946 -136.4298,-304.7244 -304.7241,-304.7244 -168.2946,0 -304.7244,136.4298 -304.7244,304.7244 0,168.2943 136.4298,304.7241 304.7244,304.7241" /><path
         id="path16"
         style="fill:#f0801c;fill-opacity:1;fill-rule:evenodd;stroke:none"
         d="m 425.1138,725.1693 c 165.7156,0 300.0552,-134.3396 300.0552,-300.0552 0,-165.716 -134.3396,-300.0555 -300.0552,-300.0555 -165.7159,0 -300.0555,134.3395 -300.0555,300.0555 0,165.7156 134.3396,300.0552 300.0555,300.0552" /><path
         id="path18"
         style="fill:#89be41;fill-opacity:1;fill-rule:evenodd;stroke:none"
         d="m 425.1138,651.5135 c 125.0368,0 226.3995,-101.3626 226.3995,-226.3994 0,-125.0371 -101.3627,-226.3998 -226.3995,-226.3998 -125.0371,0 -226.3998,101.3627 -226.3998,226.3998 0,125.0368 101.3627,226.3994 226.3998,226.3994" /><path
         id="path20"
         style="fill:#ffffff;fill-opacity:1;fill-rule:evenodd;stroke:none"
         d="m 425.1138,600.7388 26.8356,-135.8042 72.6829,44.3367 -44.3367,-72.6829 135.8041,-26.8358 -135.8041,-26.8356 44.3367,-72.6832 -72.6829,44.3367 -26.8356,-135.8039 -26.8359,135.8039 -72.6831,-44.3367 44.3367,72.6832 -135.8039,26.8356 135.8039,26.8358 -44.3367,72.6829 72.6831,-44.3367 z" /><path
         id="path22"
         style="fill:#ffffff;fill-opacity:1;fill-rule:evenodd;stroke:none"
         d="m 355.7194,593.32 13.394,25.8959 22.9045,-32.3484 33.0959,55.7875 33.0959,-55.7875 22.9045,32.3484 13.394,-25.8959 22.5034,19.9445 122.7197,-179.9898 -113.1902,97.0884 -36.1786,-6.0299 -3.4197,-0.5372 -1.9862,2.2326 -59.8428,71.8679 -59.8428,-71.8679 -2.0267,-2.219 -3.3792,0.5236 -36.1786,6.0299 -113.1902,-97.0884 122.7197,179.9898 z" /><path
         id="path24"
         style="fill:#ec692e;fill-opacity:1;fill-rule:evenodd;stroke:none"
         d="m 364.496,531.9201 60.6178,102.1791 60.6178,-102.1791 -60.6178,72.7985 z M 470.5353,566.24 516.1972,606.7097 617.5607,458.0427 527.8351,535.0042 492.59,529.13 Z m -9.8487,16.5717 19.8454,28.0278 10.6064,-20.5061 -22.8736,-20.2728 z m -80.9943,-16.5717 -45.6619,40.4697 -101.3635,-148.667 89.7256,76.9615 35.2451,-5.8742 z m 9.8487,16.5717 -19.8454,28.0278 -10.6064,-20.5061 22.8736,-20.2728 z" /><g
         id="g26"><path
           id="path28"
           style="fill:#ec692e;fill-opacity:1;fill-rule:evenodd;stroke:none"
           d="m 471.2675,441.2194 c 17.3784,-25.49 10.8025,-60.2422 -14.6874,-77.6205 -25.4903,-17.3784 -60.2422,-10.8026 -77.6206,14.6877 -17.3783,25.49 -10.8025,60.2419 14.6875,77.6205 25.4902,17.3784 60.2421,10.8023 77.6205,-14.6877" /><path
           id="path30"
           style="fill:#0093cd;fill-opacity:1;fill-rule:evenodd;stroke:none"
           d="m 378.1749,379.4683 47.0792,86.1497 47.071,-85.748 z" /><path
           id="path32"
           style="fill:#f7de4f;fill-opacity:1;fill-rule:evenodd;stroke:none"
           d="m 387.6248,389.2133 3.1708,-4.6508 -7.1997,-1.5024 z m 71.0308,45.021 c 0.4,-0.5871 0.2486,-1.3879 -0.3385,-1.7878 -0.5867,-0.4003 -1.3875,-0.2489 -1.7878,0.3381 -0.4002,0.5871 -0.2486,1.3879 0.3382,1.7878 0.5871,0.4003 1.3878,0.2486 1.7881,-0.3381 z m 10.6807,-30.5482 c -2.454,15.5875 -7.7222,25.2295 -14.3093,24.6674 l -3.1712,4.6514 c 1.5642,3.5195 -6.008,10.4179 -10.1812,9.5337 -0.1114,4.3515 2.2975,7.0691 7.227,8.1528 l 0.6732,-9.1593 5.5162,-0.5208 c 10.105,-8.083 17.1627,-25.4607 14.2453,-37.3252 z m -10.0622,30.9697 c 0.633,-0.9287 0.3935,-2.1949 -0.5352,-2.8281 -0.9286,-0.633 -2.1951,-0.3935 -2.8281,0.5351 -0.6333,0.9287 -0.3934,2.1952 0.5352,2.8282 0.9286,0.6332 2.1949,0.3934 2.8281,-0.5352 z m -8.1366,-2.1407 3.1709,-4.6514 -62.7123,-42.7553 -3.1711,4.6511 z m -30.3686,-16.5904 c -0.6169,0.4652 -0.8269,1.2697 -0.5664,1.9576 -0.5536,-0.5896 -1.1599,-1.1029 -1.821,-1.5372 0.3912,-0.1517 0.7279,-0.4479 0.921,-0.8575 0.4189,-0.8912 0.8385,-1.7594 1.2586,-2.6062 l -4.9329,-3.3633 c -0.3991,1.3148 -0.7736,2.6731 -1.1202,4.076 -0.1126,0.4572 -0.0281,0.9173 0.1998,1.2897 -1.1718,-0.2168 -2.4463,-0.2562 -3.831,-0.1094 -0.9318,0.0973 -1.6092,0.9321 -1.512,1.8638 0.0465,0.4436 0.2599,0.8297 0.5715,1.1018 -0.37,0.0122 -0.7484,0.0386 -1.1356,0.0797 -0.932,0.0972 -1.6092,0.932 -1.512,1.8638 0.0462,0.4439 0.2602,0.8297 0.5717,1.1018 -0.3702,0.0119 -0.7489,0.0385 -1.1361,0.0796 -0.9317,0.0973 -1.6089,0.9321 -1.5117,1.8638 0.0218,0.2095 0.0808,0.4057 0.1701,0.5834 -0.3456,-0.0298 -0.7027,0.0453 -1.0219,0.2384 -8.0833,4.8906 -11.3015,10.0837 -11.5773,14.2126 -0.2004,2.9926 1.0729,5.4505 3.1927,6.9738 2.0424,1.4678 4.8608,2.031 7.8508,1.3054 4.7495,-1.1526 10.023,-5.6143 13.0573,-15.0271 0.0819,-0.2528 0.1006,-0.511 0.066,-0.7577 0.2432,0.007 0.4918,-0.0394 0.7294,-0.1442 0.8574,-0.3787 1.2458,-1.3816 0.8671,-2.2391 -0.1483,-0.3379 -0.3042,-0.6648 -0.4672,-0.98 0.4726,0.3382 1.1064,0.4255 1.6761,0.1738 0.8575,-0.3787 1.2459,-1.3816 0.8672,-2.2391 -0.148,-0.3376 -0.3036,-0.6641 -0.4666,-0.9796 0.4725,0.3381 1.1061,0.4252 1.6755,0.1737 0.8575,-0.3787 1.2459,-1.3816 0.8672,-2.2393 -0.0692,-0.1579 -0.1404,-0.3138 -0.2129,-0.4669 0.466,0.165 0.9995,0.1267 1.4539,-0.1517 1.5865,-0.9654 3.1002,-1.927 4.5436,-2.8825 l -5.7005,-3.8863 c -0.6582,0.5063 -1.3294,1.0162 -2.0142,1.5284 z m 3.4174,-9.8098 c 2.4891,-4.2911 4.9499,-7.8356 7.2944,-10.6974 3.2335,-3.9461 6.1985,-6.5441 8.672,-7.981 2.1277,-1.2356 3.7299,-1.5755 4.6503,-1.1426 0.079,0.0374 0.1627,0.0918 0.2497,0.163 0.1273,0.1043 0.2336,0.2137 0.318,0.3262 0.5511,0.7365 0.5086,1.9803 -0.1006,3.6514 -0.7503,2.0571 -2.3227,4.5762 -4.6837,7.4576 -2.8102,3.4299 -6.696,7.3145 -11.603,11.4934 l 2.906,1.9811 c 4.7475,-4.0949 8.542,-7.9189 11.3321,-11.3241 2.6014,-3.1748 4.3625,-6.0285 5.2433,-8.4436 1.0218,-2.802 0.9087,-5.1332 -0.3824,-6.859 -0.2546,-0.3396 -0.5474,-0.6465 -0.8791,-0.9181 -0.278,-0.2273 -0.5969,-0.4261 -0.9535,-0.5941 -1.9211,-0.9026 -4.6381,-0.5565 -7.799,1.2795 -2.8154,1.6353 -6.1118,4.4963 -9.6049,8.7596 -2.4035,2.9336 -4.9241,6.5566 -7.4713,10.9313 z m 10.9301,7.452 c 5.3277,-4.0856 9.3682,-8.0093 12.2984,-11.6411 3.2403,-4.0167 5.1542,-7.7221 5.9695,-10.9377 0.8773,-3.4611 0.5034,-6.4058 -0.8555,-8.6381 -0.5051,-0.8291 -1.1427,-1.5545 -1.8992,-2.1648 -1.0077,-0.8129 -2.1974,-1.3872 -3.5263,-1.7155 -2.9466,-0.7282 -6.5571,-0.2007 -10.3213,1.6665 -3.6022,1.7872 -7.3967,4.8203 -10.9063,9.1709 -2.762,3.424 -5.36,7.6808 -7.5583,12.8067 l 2.8585,1.9488 c 2.1234,-5.091 4.6548,-9.286 7.35,-12.6269 3.1835,-3.9467 6.5778,-6.6748 9.769,-8.2577 3.0294,-1.5026 5.8215,-1.9556 7.9965,-1.4178 0.8326,0.2055 1.5781,0.5655 2.2096,1.0751 0.4524,0.3646 0.832,0.796 1.1308,1.287 0.8895,1.4609 1.1044,3.5081 0.4663,6.0244 -0.7002,2.7624 -2.4072,6.0234 -5.3334,9.6506 -2.9356,3.6385 -7.0699,7.6019 -12.6074,11.7521 z M 405.65,431.4368 c -0.4567,0.6321 -0.3149,1.5151 0.3172,1.9717 0.6321,0.4567 1.5151,0.315 1.9718,-0.3172 l 2.6192,-3.6212 c -2.1844,5.4572 -5.2336,8.3027 -7.712,9.2163 -1.0238,0.3775 -1.8453,0.3951 -2.3179,0.108 -0.3078,-0.1874 -0.4498,-0.6353 -0.3342,-1.3111 0.3391,-1.9839 2.4103,-4.9461 7.2746,-8.5609 z" /><path
           id="path34"
           style="fill:#2b2b2a;fill-opacity:1;fill-rule:nonzero;stroke:none"
           d="m 387.7444,389.2887 3.168,-4.6466 c 0.0439,-0.0643 0.0272,-0.1525 -0.0372,-0.1964 -0.0167,-0.0113 -0.0351,-0.0187 -0.0538,-0.0221 l -7.1966,-1.5018 c -0.0763,-0.0159 -0.1514,0.0332 -0.1673,0.1094 -0.008,0.038 3e-4,0.076 0.0202,0.106 l 4.0286,6.1535 c 0.0425,0.0652 0.1306,0.0836 0.1958,0.0411 0.0176,-0.0116 0.0318,-0.0264 0.0423,-0.0431 z m 2.8153,-4.631 -2.9324,4.301 -3.7261,-5.6905 z m 68.2127,49.6562 c 0.2219,-0.3257 0.2908,-0.7112 0.2231,-1.0698 -0.0669,-0.3549 -0.2688,-0.6854 -0.5877,-0.9068 l -0.0224,-0.0153 c -0.3231,-0.2157 -0.7035,-0.2826 -1.0581,-0.2157 -0.3549,0.0669 -0.6849,0.2682 -0.9068,0.5871 l -0.0153,0.0226 c -0.216,0.3232 -0.2826,0.7039 -0.2158,1.0588 0.0678,0.3586 0.273,0.6925 0.5984,0.9144 0.3255,0.222 0.711,0.2909 1.0698,0.2231 0.3589,-0.0677 0.6928,-0.273 0.9148,-0.5984 z m -0.0547,-1.0176 c 0.0544,0.2877 -10e-4,0.5972 -0.1789,0.8583 -0.178,0.2611 -0.4456,0.4255 -0.7333,0.4799 -0.288,0.0544 -0.5973,-8e-4 -0.8584,-0.1788 -0.261,-0.1781 -0.4254,-0.4457 -0.4799,-0.7331 -0.0541,-0.2869 6e-4,-0.595 0.1769,-0.8555 l 0.002,-0.003 c 0.178,-0.2611 0.4453,-0.4255 0.733,-0.4799 0.2866,-0.0541 0.5947,8e-4 0.855,0.1769 l 0.003,0.002 c 0.2611,0.1778 0.426,0.4454 0.4802,0.7331 z m 10.4782,-29.6272 c -1.2387,7.8673 -3.1952,14.2141 -5.6755,18.4899 -2.4007,4.1388 -5.288,6.3258 -8.4818,6.0533 -0.0561,-0.005 -0.1075,0.0244 -0.1341,0.0698 l -3.1654,4.6431 c -0.0304,0.0445 -0.0318,0.1001 -0.009,0.1449 0.2196,0.4997 0.244,1.0766 0.1139,1.6911 -0.2684,1.2671 -1.19,2.6924 -2.4228,3.9699 -1.2384,1.2836 -2.7887,2.4155 -4.3072,3.0904 -1.2206,0.542 -2.4185,0.7889 -3.4104,0.5788 -0.0762,-0.0161 -0.1516,0.0326 -0.1678,0.1089 l -0.003,0.034 c -0.055,2.2085 0.5315,4.0062 1.7589,5.3906 1.2248,1.3819 3.0852,2.3474 5.5797,2.8959 0.0763,0.0162 0.1519,-0.0323 0.1681,-0.1086 l 0.6673,-9.0598 5.3971,-0.5094 c 0.0284,-0.002 0.0542,-0.0136 0.0749,-0.0303 5.1466,-4.1167 9.5054,-10.6327 12.1666,-17.6063 2.5854,-6.7748 3.5719,-13.9887 2.1276,-19.8629 -0.0184,-0.0757 -0.0952,-0.1219 -0.1709,-0.1035 -0.0587,0.0142 -0.0995,0.0635 -0.1066,0.1202 z m -5.4306,18.6316 c 2.4214,-4.1737 4.3453,-10.2997 5.5942,-17.8724 1.1874,5.682 0.1851,12.5314 -2.2785,18.9861 -2.639,6.9157 -6.9534,13.3745 -12.0455,17.4603 l -5.4652,0.5159 c -0.0717,0.002 -0.1316,0.0584 -0.1367,0.1315 l -0.661,8.9952 c -2.3545,-0.5405 -4.1111,-1.4644 -5.269,-2.7706 -1.1489,-1.296 -1.7127,-2.9763 -1.6906,-5.0385 1.0176,0.1638 2.2099,-0.0933 3.4154,-0.6288 1.5529,-0.6899 3.1352,-1.8448 4.3969,-3.1521 1.2673,-1.3133 2.2164,-2.7867 2.4959,-4.1071 0.1366,-0.6455 0.1148,-1.2569 -0.1052,-1.7992 l 3.0815,-4.5204 c 3.2806,0.239 6.2297,-1.9964 8.6678,-6.1999 z m -4.3744,12.4347 c 0.3382,-0.496 0.4436,-1.0837 0.3402,-1.6305 -0.1035,-0.5473 -0.4165,-1.0559 -0.9125,-1.394 -0.4961,-0.3382 -1.0837,-0.4437 -1.6308,-0.3402 -0.5428,0.1026 -1.048,0.4113 -1.3861,0.9011 l -0.0153,0.0227 c -0.3323,0.4944 -0.4352,1.0763 -0.3328,1.6192 0.1026,0.5431 0.4113,1.0477 0.9011,1.3861 l 0.0227,0.0153 c 0.4938,0.3322 1.0766,0.4354 1.6194,0.3328 0.5474,-0.1032 1.0559,-0.4164 1.3941,-0.9125 z m 0.0624,-1.5783 c 0.0901,0.4762 -0.002,0.9873 -0.296,1.419 -0.2942,0.4317 -0.7367,0.7042 -1.2126,0.794 -0.4751,0.0899 -0.9851,-10e-4 -1.4162,-0.2939 l -0.003,-0.002 c -0.432,-0.2945 -0.7042,-0.7365 -0.794,-1.2124 -0.0896,-0.4748 0.001,-0.9847 0.2939,-1.4159 l 0.002,-0.003 c 0.2942,-0.4317 0.7367,-0.7041 1.2124,-0.794 0.4765,-0.0901 0.9876,0.002 1.4193,0.2959 0.432,0.2946 0.7038,0.7365 0.794,1.2127 z m -8.199,-0.5624 3.1709,-4.6514 c 0.0439,-0.0643 0.0272,-0.1525 -0.0372,-0.1964 l -62.7123,-42.7552 c -0.0643,-0.044 -0.1525,-0.0273 -0.1964,0.0371 l -3.1711,4.6511 c -0.0439,0.0643 -0.0272,0.1525 0.0371,0.1964 l 62.7126,42.7555 c 0.0643,0.044 0.1525,0.0273 0.1964,-0.0371 z m 2.8576,-4.6939 -3.0115,4.4178 -62.479,-42.5962 3.0118,-4.4175 z m -33.4281,-12.0889 c -0.3299,0.2486 -0.553,0.5876 -0.6593,0.9561 -0.0621,0.2149 -0.0848,0.4403 -0.0669,0.6639 -0.1732,-0.1684 -0.3515,-0.3302 -0.5341,-0.4844 -0.2426,-0.2047 -0.4952,-0.3986 -0.7574,-0.5806 0.1276,-0.0711 0.2475,-0.1579 0.3558,-0.2588 0.1655,-0.1542 0.3061,-0.343 0.4084,-0.5601 l 0.6282,-1.3187 0.6293,-1.2852 c 0.0317,-0.0638 0.0102,-0.1403 -0.0471,-0.1794 l -4.9328,-3.3633 c -0.0644,-0.044 -0.1525,-0.0273 -0.1965,0.0371 l -0.0195,0.0422 c -0.1987,0.6551 -0.3935,1.3289 -0.5837,2.02 -0.1871,0.6812 -0.3668,1.3686 -0.5374,2.0596 -0.0598,0.2433 -0.0683,0.4876 -0.0326,0.7198 l 0.003,0.0133 c 0.0224,0.1395 0.0612,0.2749 0.114,0.4036 -0.5074,-0.081 -1.0338,-0.1298 -1.5789,-0.1454 -0.6449,-0.0187 -1.3167,0.008 -2.0143,0.0822 l -0.005,6e-4 c -0.5026,0.0539 -0.9371,0.3061 -1.2319,0.6701 -0.2965,0.3651 -0.4536,0.8439 -0.4011,1.3482 0.0244,0.2358 0.0932,0.4572 0.1959,0.6553 0.0561,0.1083 0.1227,0.2101 0.1984,0.3042 l -0.2529,0.0156 c -0.1899,0.0133 -0.3835,0.0303 -0.5799,0.0513 l -0.005,6e-4 c -0.5023,0.0535 -0.9365,0.3058 -1.2322,0.6698 -0.2962,0.3654 -0.4535,0.8441 -0.4008,1.3484 0.0244,0.2359 0.093,0.4567 0.1956,0.6548 0.0564,0.1083 0.123,0.2104 0.199,0.3047 l -0.2534,0.0156 c -0.19,0.0134 -0.3836,0.0304 -0.58,0.0513 l -0.005,6e-4 c -0.5026,0.0539 -0.9372,0.3062 -1.232,0.6701 -0.2959,0.3651 -0.4532,0.8442 -0.4008,1.3482 0.0116,0.1119 0.0334,0.2214 0.0635,0.3251 l 0.0315,0.0972 c -0.1157,0.005 -0.2319,0.0199 -0.3464,0.0465 -0.1837,0.0428 -0.364,0.1151 -0.5329,0.2172 -3.7755,2.2841 -6.4956,4.6366 -8.354,6.9179 -2.1436,2.6317 -3.1422,5.1721 -3.2913,7.4067 -0.0993,1.4828 0.1581,2.8386 0.6981,4.0181 0.5675,1.2401 1.448,2.2853 2.5532,3.0795 1.0593,0.7611 2.3238,1.2836 3.7106,1.514 1.3286,0.2208 2.772,0.1741 4.2559,-0.1859 2.5843,-0.6271 5.3209,-2.2224 7.7717,-5.0429 2.0937,-2.4097 3.981,-5.7157 5.387,-10.0783 0.0437,-0.1349 0.0711,-0.2715 0.0828,-0.4059 l 3e-4,-0.004 c 0.007,-0.0842 0.008,-0.1686 0.004,-0.2525 0.0814,-0.005 0.163,-0.0151 0.2435,-0.0309 0.1307,-0.0256 0.2611,-0.0667 0.3875,-0.1225 0.4641,-0.2049 0.802,-0.5794 0.972,-1.0185 0.1698,-0.4391 0.1724,-0.9431 -0.0323,-1.4071 l -0.003,-0.007 c -0.0762,-0.1738 -0.1519,-0.339 -0.2259,-0.4944 l -0.0417,-0.0861 c 0.1528,0.0589 0.3133,0.0981 0.4771,0.1151 0.3078,0.0317 0.6279,-0.0136 0.9303,-0.1472 0.4641,-0.2049 0.8019,-0.5794 0.972,-1.0184 0.1698,-0.4391 0.1724,-0.9431 -0.0323,-1.4072 -0.093,-0.1939 -0.1774,-0.3928 -0.2704,-0.5873 0.1525,0.0592 0.3129,0.0981 0.4768,0.1148 0.3072,0.0317 0.6273,-0.0133 0.93,-0.1468 0.4643,-0.205 0.8019,-0.5797 0.972,-1.0185 0.1701,-0.4388 0.1724,-0.9434 -0.0323,-1.4074 l -0.0887,-0.1976 c 0.1661,0.0286 0.3367,0.0349 0.5065,0.0173 0.2639,-0.0275 0.5264,-0.1131 0.7674,-0.2605 0.7951,-0.4836 1.5653,-0.9624 2.3108,-1.4355 0.7534,-0.4779 1.4995,-0.9618 2.2371,-1.4499 0.0649,-0.0428 0.0827,-0.131 0.0399,-0.1959 -0.0104,-0.0158 -0.0235,-0.0289 -0.0382,-0.0388 l -5.7005,-3.8863 c -0.0519,-0.0354 -0.1188,-0.0315 -0.1661,0.005 l -0.9961,0.7617 -1.0168,0.7659 z m -0.3878,1.0349 c 0.0899,-0.3118 0.279,-0.5986 0.5582,-0.8093 l 1.017,-0.767 0.9171,-0.6996 5.4416,3.71 c -0.6619,0.4365 -1.3481,0.8804 -2.0574,1.3303 -0.7577,0.4807 -1.5267,0.9589 -2.3062,1.4332 -0.2044,0.125 -0.4266,0.1976 -0.6489,0.2208 -0.2316,0.0241 -0.4663,-0.005 -0.6843,-0.0819 -0.0334,-0.0116 -0.0714,-0.0108 -0.1063,0.005 -0.0708,0.0326 -0.1017,0.1168 -0.0691,0.1876 0.0706,0.152 0.1488,0.3101 0.2117,0.4646 0.1735,0.3929 0.1715,0.8201 0.0278,1.1914 -0.1437,0.3711 -0.4297,0.6883 -0.8223,0.8615 -0.2566,0.1134 -0.5276,0.1516 -0.7872,0.1247 -0.269,-0.0275 -0.5284,-0.1261 -0.7489,-0.284 -0.042,-0.0295 -0.0987,-0.0357 -0.1474,-0.0105 -0.0692,0.0357 -0.0964,0.1213 -0.0607,0.1905 0.0794,0.1539 0.1579,0.3115 0.2336,0.4711 0.076,0.1644 0.1587,0.3348 0.229,0.5006 0.1735,0.3932 0.1712,0.8201 0.0278,1.1911 -0.1437,0.3713 -0.4297,0.688 -0.8223,0.8615 -0.2566,0.1133 -0.5276,0.1519 -0.7875,0.125 -0.2693,-0.0278 -0.5287,-0.1265 -0.7492,-0.2844 -0.0419,-0.0294 -0.0986,-0.0357 -0.1474,-0.0104 -0.0692,0.0357 -0.0964,0.1213 -0.0607,0.1904 0.0794,0.1534 0.1579,0.311 0.2339,0.4712 l 0.003,0.007 c 0.0788,0.1653 0.1536,0.328 0.2228,0.4859 l 0.003,0.008 c 0.1735,0.3932 0.1712,0.8201 0.0278,1.1912 -0.1437,0.3713 -0.4297,0.6879 -0.8223,0.8614 -0.1072,0.0474 -0.2177,0.0822 -0.328,0.1038 -0.1125,0.0221 -0.2259,0.0314 -0.3359,0.0289 l -0.0278,10e-4 c -0.0771,0.0105 -0.1312,0.0822 -0.1207,0.1593 0.0156,0.1128 0.0192,0.2299 0.009,0.3475 l -3e-4,0.004 c -0.01,0.1151 -0.0331,0.2311 -0.0697,0.3442 -1.3935,4.3234 -3.261,7.5968 -5.3314,9.9796 -2.4089,2.7723 -5.093,4.339 -7.6243,4.9533 -1.4457,0.3506 -2.8511,0.3963 -4.1443,0.1814 -1.343,-0.2234 -2.567,-0.7285 -3.5909,-1.4641 -1.0661,-0.7662 -1.9145,-1.7734 -2.4613,-2.9679 -0.5205,-1.1372 -0.7688,-2.4471 -0.6727,-3.882 0.1454,-2.1802 1.1248,-4.6647 3.2284,-7.2474 1.838,-2.2561 4.534,-4.5864 8.2808,-6.8533 0.144,-0.087 0.2965,-0.1485 0.4507,-0.1842 0.1599,-0.0372 0.3249,-0.0479 0.4865,-0.0343 0.0249,10e-4 0.0507,-0.003 0.0748,-0.0151 0.0694,-0.0348 0.0978,-0.1199 0.0629,-0.1893 -0.0405,-0.0808 -0.0748,-0.1681 -0.1017,-0.26 -0.0256,-0.0881 -0.0443,-0.1805 -0.0539,-0.2746 -0.0442,-0.4266 0.0884,-0.8323 0.339,-1.1413 0.25,-0.3081 0.6183,-0.5218 1.0435,-0.5672 l 0.004,-3e-4 c 0.1902,-0.0201 0.3802,-0.0371 0.5687,-0.0501 0.1919,-0.0134 0.3781,-0.0233 0.557,-0.0289 0.0377,-10e-4 0.0748,-0.0176 0.1017,-0.0482 0.0513,-0.0587 0.0454,-0.148 -0.0133,-0.1993 -0.1451,-0.1267 -0.2681,-0.2818 -0.3586,-0.4561 -0.087,-0.1678 -0.1448,-0.3546 -0.1655,-0.5539 -0.0445,-0.4272 0.0884,-0.8325 0.339,-1.1415 0.25,-0.3081 0.6185,-0.5219 1.0437,-0.5669 l 0.004,-3e-4 c 0.1902,-0.0201 0.3801,-0.0372 0.5686,-0.0502 0.1917,-0.0133 0.3776,-0.0232 0.5565,-0.0289 0.0377,-10e-4 0.0748,-0.0176 0.1018,-0.0482 0.0513,-0.0587 0.0453,-0.148 -0.0134,-0.1993 -0.1451,-0.1267 -0.2676,-0.2812 -0.358,-0.4555 -0.0867,-0.1678 -0.1451,-0.3552 -0.1658,-0.5545 -0.0442,-0.4268 0.0887,-0.8322 0.3393,-1.1412 0.25,-0.3081 0.6182,-0.5218 1.0434,-0.5672 l 0.004,-3e-4 c 0.6866,-0.0725 1.3456,-0.0995 1.9763,-0.081 0.6282,0.0181 1.2308,0.081 1.8077,0.1876 0.0348,0.008 0.0728,0.003 0.1057,-0.017 0.0666,-0.0405 0.0876,-0.1278 0.0471,-0.1945 -0.1046,-0.1709 -0.1766,-0.3622 -0.2092,-0.5618 l -10e-4,-0.0113 c -0.0303,-0.1976 -0.0235,-0.4045 0.027,-0.6092 0.1732,-0.7007 0.3517,-1.3856 0.5351,-2.0528 0.1687,-0.6137 0.345,-1.2246 0.5276,-1.8315 l 4.6718,3.1853 -0.5758,1.1775 -0.6293,1.3209 c -0.0867,0.184 -0.2057,0.3436 -0.3455,0.474 -0.1457,0.1355 -0.3161,0.2412 -0.4986,0.3121 -0.0264,0.0105 -0.0502,0.0289 -0.0669,0.0544 -0.0425,0.0649 -0.0244,0.1528 0.0405,0.1953 0.324,0.2129 0.6367,0.4468 0.9369,0.7005 0.2979,0.2517 0.5836,0.5232 0.856,0.8132 0.038,0.042 0.0993,0.0593 0.1554,0.038 0.0728,-0.0275 0.11,-0.1094 0.0825,-0.1823 -0.1208,-0.3189 -0.1313,-0.6661 -0.0389,-0.9856 z m 4.0128,-10.6611 c 1.2103,-2.0863 2.4137,-3.9963 3.5991,-5.7347 1.2487,-1.8312 2.4806,-3.477 3.6825,-4.9439 1.5545,-1.8973 3.0464,-3.4816 4.4495,-4.773 1.5061,-1.3859 2.9112,-2.4358 4.1837,-3.1751 1.0312,-0.599 1.9358,-0.9848 2.6946,-1.171 0.7699,-0.1891 1.385,-0.1726 1.8244,0.0334 l 0.1051,0.0596 0.116,0.0856 c 0.0584,0.0476 0.1131,0.0978 0.1624,0.1485 0.0485,0.0493 0.0924,0.1012 0.1318,0.1534 l 0.005,0.006 c 0.2506,0.3393 0.3671,0.8008 0.3515,1.3731 -0.0164,0.5973 -0.1769,1.3142 -0.4773,2.1385 -0.3731,1.0233 -0.9533,2.1642 -1.7351,3.4092 -0.7761,1.2362 -1.7532,2.5764 -2.9254,4.0071 -1.4207,1.7342 -3.1184,3.5861 -5.0833,5.5323 -1.9177,1.8992 -4.0873,3.8875 -6.5013,5.9431 -0.0592,0.0502 -0.0663,0.1395 -0.0162,0.1988 l 0.0281,0.0252 2.9058,1.9814 c 0.0553,0.0377 0.1284,0.0306 0.1757,-0.013 2.3463,-2.0237 4.4589,-3.9807 6.3318,-5.8522 1.9247,-1.9233 3.5989,-3.759 5.0139,-5.4861 1.2986,-1.5849 2.3891,-3.0909 3.2658,-4.5029 0.8861,-1.4269 1.5551,-2.7595 2.0007,-3.9821 0.519,-1.4235 0.7489,-2.7303 0.6837,-3.9013 -0.0652,-1.1713 -0.4257,-2.2079 -1.0862,-3.0906 -0.1318,-0.1755 -0.273,-0.343 -0.4232,-0.4998 -0.1506,-0.1573 -0.311,-0.3058 -0.4791,-0.4433 l -0.008,-0.006 c -0.1423,-0.1157 -0.2942,-0.224 -0.4538,-0.3235 -0.1625,-0.1012 -0.3368,-0.1961 -0.5208,-0.2826 l -0.008,-0.003 c -1.0034,-0.4691 -2.2155,-0.608 -3.5869,-0.383 -1.3113,0.2149 -2.7712,0.7629 -4.3351,1.6714 -1.4663,0.8515 -3.0628,2.0341 -4.7471,3.5702 -1.5656,1.4278 -3.2089,3.1626 -4.8966,5.2223 -1.2342,1.5066 -2.5013,3.1972 -3.7874,5.0791 -1.1611,1.6988 -2.3374,3.5524 -3.5186,5.5664 0.9952,-2.3531 2.0792,-4.5125 3.2249,-6.4814 1.2615,-2.1674 2.6,-4.1052 3.981,-5.817 1.539,-1.9077 3.1269,-3.5297 4.7163,-4.8731 1.6849,-1.4244 3.3724,-2.5367 5.0051,-3.3465 1.4848,-0.7365 2.9124,-1.2192 4.2353,-1.4534 1.3467,-0.2389 2.5849,-0.2211 3.6649,0.046 0.4068,0.1003 0.7937,0.2395 1.1557,0.4155 l 0.007,0.003 c 0.3546,0.1726 0.6871,0.3835 0.9915,0.6293 0.2208,0.178 0.4235,0.3716 0.6061,0.5794 0.1825,0.2078 0.3472,0.4323 0.4926,0.671 0.4405,0.7239 0.7121,1.5984 0.79,2.6064 0.0754,0.9808 -0.0306,2.0894 -0.3401,3.31 -0.3566,1.4063 -0.9777,2.9458 -1.8913,4.599 -0.8665,1.5684 -1.9976,3.2397 -3.4152,4.9972 -1.5057,1.8663 -3.3281,3.8188 -5.4941,5.8379 -2.0483,1.9092 -4.4036,3.8784 -7.0877,5.8901 -0.0621,0.0468 -0.0749,0.1355 -0.0281,0.1976 l 0.0335,0.0318 2.9588,2.0177 c 0.0521,0.0357 0.1201,0.0314 0.1672,-0.006 2.5923,-1.9879 4.883,-3.9402 6.8899,-5.8399 2.1214,-2.0081 3.9243,-3.9555 5.4312,-5.8232 1.5806,-1.9594 2.8479,-3.8475 3.827,-5.641 1.0347,-1.8964 1.7482,-3.689 2.1694,-5.3512 0.4351,-1.7161 0.5649,-3.3081 0.4221,-4.7523 -0.1486,-1.5001 -0.5922,-2.8406 -1.2941,-3.9938 -0.2559,-0.42 -0.5462,-0.8149 -0.8685,-1.1823 -0.3234,-0.3688 -0.6789,-0.7092 -1.0627,-1.019 -0.5102,-0.4116 -1.067,-0.7637 -1.6631,-1.0537 l -0.008,-0.003 c -0.5976,-0.2897 -1.2368,-0.519 -1.9106,-0.6854 -1.5075,-0.3725 -3.187,-0.4204 -4.9686,-0.1329 -1.7382,0.2806 -3.5759,0.881 -5.449,1.8099 -1.8635,0.9244 -3.7791,2.1818 -5.6801,3.78 -1.7898,1.5052 -3.5668,3.3125 -5.2738,5.4289 -1.4227,1.7634 -2.8024,3.748 -4.1057,5.9567 -1.2337,2.09 -2.4004,4.3835 -3.4725,6.8834 -0.0272,0.0641 -0.003,0.1372 0.053,0.1738 l 2.856,1.9471 c 0.0419,0.0286 0.0938,0.0314 0.1369,0.0122 -0.002,0.0496 0.0218,0.0986 0.0663,0.1264 l 2.8071,1.9137 c 0.0644,0.0439 0.1525,0.0272 0.1965,-0.0372 l 0.006,-0.009 z m 3.3655,-5.894 c -1.1653,1.7092 -2.3468,3.581 -3.5339,5.6208 l -2.5773,-1.7569 c 1.2166,-2.0835 2.4265,-3.9949 3.6193,-5.7399 1.2787,-1.8712 2.5413,-3.5555 3.7732,-5.0593 1.6792,-2.0494 3.3128,-3.774 4.8676,-5.1922 1.6691,-1.5222 3.2488,-2.6926 4.6985,-3.5345 1.5344,-0.8912 2.9613,-1.4278 4.2386,-1.6373 1.3142,-0.2157 2.4704,-0.0851 3.4226,0.3597 l 0.006,0.003 c 0.172,0.0808 0.3367,0.1706 0.4918,0.2673 0.1519,0.0944 0.2942,0.1959 0.4252,0.3022 l 0.007,0.007 c 0.1618,0.1324 0.3138,0.2727 0.4546,0.4201 0.1435,0.1499 0.2776,0.3084 0.4011,0.4731 0.6256,0.8362 0.9675,1.8213 1.0296,2.9364 0.0632,1.1324 -0.1613,2.4018 -0.6673,3.7896 -0.4385,1.2028 -1.099,2.5178 -1.9752,3.9289 -0.8702,1.4014 -1.9536,2.8975 -3.2448,4.4733 -1.4102,1.7212 -3.0773,3.5493 -4.9941,5.4646 -1.8499,1.8485 -3.9319,3.7789 -6.2385,5.7711 l -2.6637,-1.8159 c 2.3704,-2.0239 4.4983,-3.9758 6.3774,-5.8371 1.9729,-1.9542 3.6771,-3.8131 5.1032,-5.5539 1.1778,-1.4374 2.1617,-2.7873 2.9452,-4.0354 0.7929,-1.2623 1.3816,-2.4211 1.7618,-3.4637 0.3103,-0.852 0.4765,-1.5981 0.4938,-2.2269 0.0175,-0.6363 -0.1174,-1.1565 -0.4068,-1.5482 l -0.006,-0.01 c -0.0451,-0.0598 -0.097,-0.1202 -0.1545,-0.1794 -0.0567,-0.0584 -0.1194,-0.1157 -0.1874,-0.1712 -0.0482,-0.0394 -0.0955,-0.0743 -0.14,-0.1032 -0.0485,-0.0309 -0.095,-0.0578 -0.1384,-0.078 -0.4991,-0.2344 -1.1778,-0.2573 -2.0126,-0.0524 -0.7849,0.1928 -1.7149,0.5885 -2.7688,1.2005 -1.2895,0.7492 -2.7117,1.8116 -4.2336,3.2119 -1.4139,1.3011 -2.9151,2.8953 -4.4773,4.8019 -1.2044,1.4701 -2.4409,3.1221 -3.6967,4.9638 z m 14.2257,7.3414 c -1.976,1.8706 -4.233,3.7956 -6.7884,5.7594 L 432.4,411.5438 c 2.6294,-1.9789 4.9405,-3.9144 6.9531,-5.7904 2.177,-2.0293 4.0087,-3.992 5.5219,-5.8674 1.4283,-1.7705 2.5684,-3.456 3.4429,-5.0386 0.925,-1.6735 1.5548,-3.2357 1.9174,-4.6664 0.3172,-1.2512 0.4257,-2.3896 0.3481,-3.3996 -0.0817,-1.0536 -0.3671,-1.9706 -0.8309,-2.7328 -0.1528,-0.2509 -0.3274,-0.4884 -0.5215,-0.7095 -0.1953,-0.2223 -0.4096,-0.4275 -0.6412,-0.614 -0.3201,-0.2583 -0.6699,-0.4799 -1.0446,-0.6628 l -0.008,-0.004 c -0.3784,-0.184 -0.784,-0.3297 -1.2123,-0.4354 -1.1192,-0.2767 -2.3967,-0.296 -3.7812,-0.0505 -1.3484,0.2387 -2.8014,0.7296 -4.3117,1.4788 -1.6529,0.8198 -3.36,1.9449 -5.0624,3.384 -1.603,1.3553 -3.2043,2.99 -4.7543,4.9116 -1.3893,1.7221 -2.736,3.6717 -4.0054,5.8527 -1.1735,2.016 -2.2819,4.231 -3.2978,6.6487 l -2.6192,-1.7858 c 1.0536,-2.4444 2.1991,-4.6917 3.4104,-6.7434 1.2962,-2.1971 2.6682,-4.17 4.0824,-5.9233 1.6974,-2.1044 3.4608,-3.8987 5.2348,-5.3903 1.8816,-1.5823 3.7785,-2.827 5.6239,-3.7426 1.8485,-0.9167 3.6584,-1.5086 5.368,-1.7844 1.7441,-0.2815 3.3854,-0.2353 4.8568,0.1284 0.654,0.1616 1.2742,0.3841 1.8545,0.6653 l 0.007,0.004 c 0.5774,0.2809 1.1165,0.6216 1.6098,1.0196 0.373,0.301 0.7165,0.6299 1.0275,0.9845 0.3104,0.3537 0.5913,0.7358 0.8396,1.1437 0.6803,1.1175 1.1101,2.4183 1.2544,3.8742 0.1397,1.4116 0.0116,2.9715 -0.4153,4.6559 -0.4156,1.6398 -1.1205,3.41 -2.1433,5.2849 -0.9703,1.7776 -2.2283,3.651 -3.7993,5.5984 -1.5026,1.8626 -3.2967,3.8007 -5.4045,5.796 z m -36.3705,23.7294 c -0.2463,0.3455 -0.3308,0.7594 -0.2687,1.1483 0.0632,0.3923 0.2764,0.7614 0.6239,1.0123 0.3472,0.2508 0.7645,0.3373 1.1565,0.2746 0.3923,-0.0632 0.7611,-0.2761 1.012,-0.6236 l 1.8794,-2.5979 c -0.8842,1.9482 -1.8808,3.5163 -2.9067,4.7423 -1.4275,1.7062 -2.9117,2.7496 -4.2284,3.2349 -0.4904,0.1806 -0.9312,0.277 -1.3037,0.2943 -0.3724,0.0172 -0.6763,-0.0431 -0.892,-0.1738 -0.1253,-0.0765 -0.218,-0.2126 -0.2665,-0.4037 -0.0507,-0.1984 -0.0544,-0.4541 -0.002,-0.7631 0.1772,-1.0377 0.845,-2.3561 2.1623,-3.9067 1.021,-1.2016 2.4304,-2.5395 4.3013,-3.9909 l -1.2677,1.753 z m 0.0102,1.1041 c -0.0507,-0.3183 0.0182,-0.6571 0.2194,-0.94 l 1.8241,-2.5211 c 0.0349,-0.0488 0.0366,-0.1168 -10e-4,-0.1673 -0.0465,-0.0623 -0.1352,-0.0756 -0.1976,-0.0292 -2.2714,1.6878 -3.9379,3.2358 -5.1046,4.6089 -1.3524,1.5919 -2.0401,2.9574 -2.2252,4.0416 -0.0598,0.3498 -0.0539,0.6452 0.006,0.8805 0.0675,0.2661 0.2044,0.4597 0.3937,0.5751 0.2645,0.1605 0.622,0.2347 1.0511,0.2149 0.4031,-0.0187 0.8728,-0.1205 1.3893,-0.3107 1.3589,-0.5009 2.8859,-1.5718 4.3481,-3.3194 1.2398,-1.4816 2.4358,-3.4526 3.4463,-5.9771 0.0235,-0.059 0.005,-0.1284 -0.0482,-0.1672 -0.0632,-0.0457 -0.1519,-0.0318 -0.1975,0.0314 l -2.6193,3.6213 c -0.2052,0.2846 -0.5068,0.4589 -0.8274,0.5105 -0.3212,0.0513 -0.663,-0.0193 -0.9473,-0.2248 -0.2841,-0.2052 -0.4584,-0.5068 -0.51,-0.8274" /><path
           id="path36"
           style="fill:#e31f25;fill-opacity:1;fill-rule:nonzero;stroke:none"
           d="m 436.2953,411.2589 c 0.9204,-0.1718 1.5282,-1.0576 1.3564,-1.978 -0.1718,-0.9207 -1.0573,-1.5282 -1.978,-1.3564 l -8.9575,1.6466 -1.7402,-8.9404 c -0.1763,-0.9196 -1.0655,-1.5222 -1.9854,-1.3456 -0.9195,0.1766 -1.5219,1.0655 -1.3456,1.9854 l 1.7348,8.9138 -8.9314,1.6421 c -0.9207,0.1718 -1.5281,1.0573 -1.3563,1.978 0.1715,0.9204 1.0573,1.5282 1.978,1.3564 l 8.958,-1.6469 1.7399,8.9401 c 0.1763,0.9196 1.0656,1.522 1.9851,1.3457 0.9199,-0.1766 1.5222,-1.0659 1.3459,-1.9854 l -1.7348,-8.9136 z" /><path
           id="path38"
           style="fill:#2b2b2a;fill-opacity:1;fill-rule:nonzero;stroke:none"
           d="m 436.3209,411.3978 c 0.4986,-0.093 0.9133,-0.3798 1.1792,-0.7676 0.2656,-0.3872 0.3835,-0.8768 0.2905,-1.3748 -0.093,-0.4989 -0.3798,-0.9134 -0.7676,-1.1792 -0.3872,-0.2656 -0.8765,-0.3836 -1.3748,-0.2906 l -8.8197,1.6214 -1.7136,-8.8027 c -0.0952,-0.4983 -0.3843,-0.9108 -0.7735,-1.1744 -0.3895,-0.2639 -0.8791,-0.3793 -1.3768,-0.2837 -0.4981,0.0952 -0.9105,0.3844 -1.1744,0.7738 -0.2636,0.3889 -0.3793,0.8793 -0.2841,1.3771 l 1.7076,8.7741 -8.7908,1.6163 c -0.4989,0.093 -0.9133,0.3798 -1.1792,0.7676 -0.2656,0.3872 -0.3835,0.8762 -0.2905,1.3743 0.0929,0.4994 0.3798,0.9141 0.7673,1.1795 0.3872,0.2658 0.8762,0.3838 1.3742,0.2908 l 8.8212,-1.6217 1.7132,8.8027 c 0.0953,0.4978 0.3844,0.9102 0.7736,1.1738 0.3892,0.2636 0.8793,0.3793 1.3771,0.2841 0.4975,-0.0953 0.9102,-0.3844 1.1741,-0.7739 0.2636,-0.3892 0.3793,-0.8796 0.284,-1.3771 l -1.7076,-8.7738 z m 0.9456,-0.9269 c -0.2248,0.3279 -0.5752,0.5706 -0.9967,0.6491 l -9.0714,1.6679 1.7617,9.053 c 0.0808,0.4215 -0.017,0.8368 -0.2398,1.1656 -0.2228,0.3288 -0.5723,0.5735 -0.9938,0.6543 -0.4215,0.0807 -0.8368,-0.0171 -1.1656,-0.2399 -0.3288,-0.2228 -0.5732,-0.5723 -0.654,-0.9935 l -1.7665,-9.0777 -9.0953,1.6722 c -0.4226,0.0785 -0.837,-0.0213 -1.1653,-0.2466 -0.3277,-0.2245 -0.57,-0.5746 -0.6488,-0.9958 -0.0786,-0.4224 0.0215,-0.8374 0.2463,-1.1651 0.2248,-0.3279 0.5751,-0.5706 0.9967,-0.6491 l 9.072,-1.6679 -1.7621,-9.0536 c -0.0808,-0.4215 0.017,-0.8368 0.2398,-1.1656 0.2229,-0.3291 0.5721,-0.5734 0.9933,-0.6542 0.4224,-0.0811 0.8371,0.0167 1.1662,0.2395 0.3288,0.2228 0.5731,0.572 0.6539,0.9933 l 1.7672,9.0788 9.0949,-1.6722 c 0.4221,-0.0785 0.8368,0.0215 1.1645,0.2463 0.328,0.2248 0.5706,0.5752 0.6491,0.9967 0.0785,0.4218 -0.0215,0.8365 -0.2463,1.1645" /><path
           id="path40"
           style="fill:#2b2b2a;fill-opacity:1;fill-rule:nonzero;stroke:none"
           d="m 409.0453,423.9777 c -0.8107,-0.2064 -1.6738,-0.3323 -2.5855,-0.3714 -0.1145,-0.004 -0.2185,0.0746 -0.2415,0.1902 -0.0252,0.1279 0.0576,0.2526 0.1854,0.2778 0.7503,0.1514 1.48,0.3527 2.1861,0.601 0.7021,0.2463 1.3856,0.5428 2.0492,0.8864 0.985,0.5091 1.9116,1.1188 2.7807,1.8229 0.8674,0.7027 1.6799,1.501 2.4387,2.3913 0.0743,0.0998 0.2154,0.125 0.3203,0.0559 0.1086,-0.0715 0.1386,-0.2191 0.0672,-0.328 -0.6948,-1.0519 -1.4496,-1.9715 -2.2663,-2.7502 -0.8147,-0.7772 -1.6909,-1.4139 -2.6294,-1.9014 l -0.0139,-0.008 c -0.7124,-0.3688 -1.4766,-0.6591 -2.291,-0.8668" /><path
           id="path42"
           style="fill:#2b2b2a;fill-opacity:1;fill-rule:nonzero;stroke:none"
           d="m 411.0242,421.3695 c -0.7163,-0.1823 -1.4786,-0.2934 -2.2839,-0.328 -0.1012,-0.003 -0.193,0.0658 -0.2132,0.1681 -0.0223,0.1129 0.0508,0.2231 0.1636,0.2455 0.6627,0.1335 1.3073,0.3113 1.931,0.5307 0.6202,0.2177 1.224,0.4796 1.8102,0.7829 0.8702,0.4499 1.6886,0.9884 2.4565,1.6104 0.7662,0.6207 1.4839,1.326 2.154,2.1123 0.0658,0.0882 0.1905,0.1106 0.2829,0.0496 0.0961,-0.0635 0.1228,-0.1939 0.0596,-0.2899 -0.6138,-0.9292 -1.2805,-1.7417 -2.0019,-2.4293 -0.7197,-0.6869 -1.4938,-1.249 -2.3227,-1.6798 l -0.0122,-0.007 c -0.6295,-0.3257 -1.3045,-0.5819 -2.0239,-0.7656" /><path
           id="path44"
           style="fill:#2b2b2a;fill-opacity:1;fill-rule:nonzero;stroke:none"
           d="m 413.1575,418.2854 c -0.7163,-0.1823 -1.4785,-0.2934 -2.2838,-0.328 -0.1012,-0.003 -0.1931,0.0658 -0.2132,0.1681 -0.0224,0.1129 0.0507,0.2231 0.1636,0.2455 0.6627,0.1335 1.3073,0.3113 1.9309,0.5307 0.6202,0.2177 1.224,0.4796 1.8102,0.7829 0.8703,0.4499 1.6886,0.9884 2.4565,1.6104 0.7662,0.6207 1.484,1.326 2.1541,2.1123 0.0657,0.0882 0.1905,0.1106 0.2829,0.0496 0.0961,-0.0635 0.1227,-0.1938 0.0595,-0.2899 -0.6137,-0.9292 -1.2804,-1.7416 -2.0018,-2.4293 -0.7197,-0.6869 -1.4939,-1.249 -2.3227,-1.6798 l -0.0122,-0.007 c -0.6296,-0.3257 -1.3045,-0.582 -2.024,-0.7657" /><path
           id="path46"
           style="fill:#2b2b2a;fill-opacity:1;fill-rule:evenodd;stroke:none"
           d="m 406.1123,425.2842 c -20.2788,18.3849 0.1128,23.3991 7.5753,4.8429 -6.6092,22.2617 -31.2029,12.2769 -7.5753,-4.8429" /></g><path
         id="path48"
         style="fill:#b1cb22;fill-opacity:1;fill-rule:nonzero;stroke:none"
         d="m 179.1828,341.6839 c 3.4072,1.3278 5.8456,2.1872 7.3238,2.5739 1.4828,0.3968 2.9705,0.4008 4.4706,0.0142 1.5001,-0.3864 2.8457,-1.1784 4.0337,-2.3695 1.1882,-1.1908 2.1537,-2.74 2.897,-4.6471 0.7069,-1.8145 1.0389,-3.5533 1.0083,-5.2271 -0.0307,-1.6739 -0.4629,-3.1836 -1.3091,-4.517 -0.8433,-1.3408 -1.9329,-2.3664 -3.2593,-3.0804 -1.3362,-0.7101 -3.7457,-1.7476 -7.2317,-3.106 l -5.8008,-2.2603 c -3.4073,-1.3277 -5.8451,-2.1872 -7.3236,-2.5741 -1.4828,-0.3969 -2.9707,-0.4006 -4.4708,-0.0142 -1.4998,0.3866 -2.8452,1.1786 -4.0334,2.3695 -1.188,1.1911 -2.1538,2.7399 -2.897,4.6474 -0.707,1.8144 -1.0389,3.5529 -1.0083,5.2268 0.0306,1.6741 0.4626,3.1836 1.309,4.5173 0.843,1.3407 1.9332,2.366 3.2593,3.0801 1.336,0.7101 3.7457,1.7478 7.2317,3.1062 z m -7.6961,-13.1689 c -1.5715,-0.6123 -2.5455,-1.0907 -2.9217,-1.4349 -0.369,-0.341 -0.4538,-0.7775 -0.248,-1.3062 0.1755,-0.4498 0.4876,-0.7231 0.9394,-0.8271 0.4419,-0.099 1.5392,0.1885 3.2825,0.8679 l 15.8227,6.1657 c 1.9644,0.7653 3.1482,1.3172 3.5442,1.6526 0.4031,0.3381 0.4895,0.7914 0.2667,1.3629 -0.2282,0.5856 -0.6397,0.8614 -1.2325,0.8195 -0.5924,-0.0414 -1.8876,-0.4556 -3.8806,-1.2323 z m 6.5273,40.9539 c 2.6051,0.7333 4.5752,0.9212 5.9026,0.5623 1.3329,-0.3498 2.3321,-1.1834 3.0065,-2.4749 0.6763,-1.2991 1.4408,-3.4495 2.2884,-6.4604 l 2.9642,-10.5313 -35.0249,-9.8586 -5.023,17.8444 6.0664,1.7076 2.4551,-8.7228 5.9335,1.6702 -0.3969,1.4093 c -0.7891,2.8044 -1.2271,4.9831 -1.2999,6.5155 -0.0732,1.5327 0.3543,2.8156 1.2891,3.8514 0.9275,1.0335 2.6068,1.8887 5.0273,2.5699 z m 1.512,-9.4187 -5.0626,-1.425 c -1.4757,-0.4156 -2.3273,-0.8147 -2.5617,-1.1988 -0.2341,-0.3846 -0.1743,-1.2758 0.1718,-2.6756 l 11.5126,3.2406 c -0.326,1.1585 -0.6939,1.8992 -1.1032,2.2218 -0.4113,0.3305 -1.3995,0.2752 -2.9569,-0.163 z m 7.3435,51.3405 0.7994,-6.4828 -6.2091,-0.7657 3.5924,-29.1276 -36.1125,-4.4536 -1.16,9.4048 28.8992,3.564 -0.3322,2.6935 -28.8992,-3.564 -1.1597,9.4048 28.899,3.564 -0.3433,2.785 -28.8992,-3.564 -1.16,9.4048 28.8993,3.564 -0.2365,1.9174 z m -42.2569,0.9734 -0.4581,15.7714 7.2652,0.2109 0.1828,-6.2991 6.9432,0.2015 -0.1709,5.8853 6.8969,0.2004 0.171,-5.8856 8.0005,0.2325 -0.2016,6.9432 7.265,0.2109 0.4767,-16.4155 z m 17.2241,43.7482 -0.7194,-9.4487 -6.2992,0.4799 c -1.8345,0.1395 -2.9812,0.1267 -3.4551,-0.0368 -0.4663,-0.1644 -0.7291,-0.5905 -0.781,-1.2708 -0.0581,-0.7645 0.1798,-1.2747 0.7144,-1.523 0.5422,-0.2489 1.7268,-0.4468 3.5614,-0.5865 l 16.8336,-1.2819 c 1.7657,-0.1343 2.9205,-0.1145 3.4789,0.0505 0.5508,0.1655 0.8538,0.6117 0.9085,1.33 0.053,0.6959 -0.1794,1.1747 -0.7058,1.4304 -0.519,0.2548 -1.7796,0.4583 -3.7749,0.6103 l -4.5638,0.3475 0.7195,9.4487 1.4139,-0.1077 c 3.7613,-0.2866 6.4088,-0.7571 7.9359,-1.404 1.5344,-0.6474 2.821,-1.9293 3.8678,-3.8313 1.0463,-1.9097 1.4653,-4.1868 1.2626,-6.8471 -0.2101,-2.7598 -0.8805,-5 -2.0186,-6.7201 -1.1378,-1.7124 -2.6124,-2.7998 -4.4302,-3.2457 -1.8176,-0.4461 -4.5,-0.5337 -8.0547,-0.263 l -10.5953,0.8067 c -2.6144,0.199 -4.5646,0.4397 -5.8584,0.7149 -1.2934,0.2829 -2.5143,0.9068 -3.6544,1.893 -1.1401,0.9785 -2.0021,2.2825 -2.5778,3.9098 -0.5755,1.628 -0.7815,3.466 -0.6256,5.5146 0.2114,2.7751 0.9209,5.0278 2.1367,6.7575 1.2076,1.7226 2.6357,2.8054 4.2849,3.2567 1.648,0.4433 4.1621,0.5366 7.5483,0.2786 z m -11.5509,27.0919 7.1499,-1.3051 -0.9993,-5.4754 28.6447,-5.2288 -1.7016,-9.322 -28.6447,5.2288 -1.0077,-5.5208 -7.1501,1.3051 z m 1.0239,5.4969 2.5512,9.0624 c 0.8059,2.8636 1.6378,4.9708 2.5035,6.3201 0.8584,1.3513 2.1008,2.2839 3.714,2.8097 1.6208,0.523 3.9396,0.3563 6.9653,-0.4955 2.044,-0.5751 3.3789,-1.2934 4.0025,-2.162 0.6313,-0.8705 0.8864,-2.3122 0.79,-4.3242 1.0738,1.9757 2.2666,3.185 3.5782,3.6283 1.3187,0.4414 3.1147,0.3419 5.4025,-0.3021 l 3.2471,-0.9139 c 2.3689,-0.667 4.0411,-1.4321 5.0332,-2.293 0.9851,-0.8586 1.5262,-1.9349 1.6146,-3.234 0.0885,-1.2991 -0.3866,-3.778 -1.4167,-7.4387 l -2.9602,-10.5162 z m 8.5456,7.439 7.7933,-2.1937 c 0.093,0.3877 0.1687,0.6851 0.2288,0.8991 0.2452,0.8711 0.1817,1.4939 -0.1871,1.8527 -0.3742,0.3683 -1.603,0.8416 -3.6766,1.4253 -1.0998,0.3095 -1.8944,0.4294 -2.3933,0.3549 -0.4915,-0.0765 -0.8444,-0.256 -1.0519,-0.5403 -0.2001,-0.286 -0.4411,-0.8872 -0.7132,-1.798 z m 13.2395,-3.7267 9.8297,-2.7669 c 0.309,1.2671 0.3362,2.1274 0.0723,2.5761 -0.2642,0.4485 -1.1092,0.8697 -2.5262,1.2685 l -3.2766,0.9224 c -1.5055,0.4235 -2.4568,0.5241 -2.869,0.3056 -0.4045,-0.2205 -0.8121,-0.9899 -1.2302,-2.3057 z m -13.7353,24.3847 5.8411,14.6574 6.7518,-2.6906 -2.3332,-5.8544 6.4525,-2.5713 2.1799,5.4694 6.4097,-2.5546 -2.1796,-5.4694 7.4353,-2.9631 2.5713,6.4525 6.7516,-2.6906 -6.0795,-15.2555 z m 16.6213,38.9886 33.1894,-14.9133 -3.884,-8.6437 -13.9303,6.2594 -1.131,-2.5174 13.9302,-6.2592 -3.884,-8.6437 -33.1894,14.9134 3.884,8.6437 11.8743,-5.3357 1.1313,2.5172 -11.8746,5.3356 z m 16.3176,26.4186 30.5733,-19.7285 -5.138,-7.9626 -12.8322,8.2806 -1.4964,-2.319 12.8322,-8.2803 -5.1381,-7.9625 -30.5731,19.7288 5.1378,7.9623 10.9386,-7.0586 1.4964,2.319 -10.9386,7.0586 z m 39.4911,6.1481 c 2.1266,-1.6736 3.4388,-3.1553 3.9306,-4.4396 0.5023,-1.2833 0.4167,-2.5818 -0.2299,-3.8872 -0.6517,-1.3119 -1.9395,-3.196 -3.8736,-5.654 l -6.766,-8.5977 -28.5939,22.5017 5.8601,7.4469 9.7965,-7.7091 0.9057,1.1508 c 1.8014,2.2893 3.3043,3.9263 4.5,4.8878 1.1956,0.9615 2.484,1.3717 3.8718,1.226 1.3816,-0.1412 3.0617,-0.9944 5.0377,-2.5495 z m -6.7218,-6.7689 -4.1331,3.2525 c -1.2051,0.9482 -2.0288,1.4015 -2.4775,1.3643 -0.4488,-0.0371 -1.1339,-0.6103 -2.0614,-1.7144 l 9.3989,-7.3961 c 0.7443,0.9456 1.1264,1.6792 1.146,2.2002 0.0247,0.527 -0.6018,1.2929 -1.8729,2.2935 z m 21.2605,11.4832 -5.8601,-7.4466 -28.5939,22.5017 5.86,7.4466 z m 18.2222,16.5498 -5.7404,-5.4451 -11.3914,12.009 7.8205,-15.3964 -5.974,-5.6667 -25.0412,26.3985 5.7404,5.445 11.3017,-11.9143 -7.4639,15.5551 5.707,5.4134 z m -36.2917,26.6955 2.77,2.6275 c 1.3419,-1.5483 2.043,-3.1451 2.1019,-4.8116 0.059,-1.6664 -0.6205,-3.1668 -2.0443,-4.5175 -1.4352,-1.3615 -2.9804,-1.9605 -4.6355,-1.7978 -1.6498,0.1576 -3.2018,0.9471 -4.6664,2.3576 l 2.77,2.6277 c 1.5474,-1.364 2.8664,-1.529 3.9676,-0.4844 1.107,1.0499 1.0228,2.3865 -0.2633,3.9985 z m 63.1009,-6.3759 -7.7068,-5.5143 -16.9438,23.6804 -2.2445,-1.6058 16.9441,-23.6804 -7.7066,-5.5145 -21.1736,29.5911 17.6576,12.6346 z m 14.3521,25.9007 c 1.834,-3.164 3.0566,-5.4417 3.6652,-6.8434 0.6191,-1.4046 0.8507,-2.8743 0.6985,-4.4158 -0.152,-1.5415 -0.7288,-2.9926 -1.7238,-4.3489 -0.9949,-1.3564 -2.378,-2.5481 -4.1488,-3.5745 -1.6849,-0.9766 -3.3522,-1.5707 -5.0111,-1.7966 -1.6591,-0.2259 -3.217,-0.0301 -4.6641,0.6018 -1.4542,0.6281 -2.6345,1.548 -3.5433,2.749 -0.9062,1.2121 -2.3003,3.4342 -4.1766,6.6714 l -3.1217,5.3861 c -1.8341,3.1637 -3.0566,5.4414 -3.6655,6.8431 -0.6191,1.4046 -0.8504,2.8743 -0.6985,4.4158 0.1525,1.5415 0.7294,2.9922 1.724,4.3486 0.9953,1.3567 2.378,2.5481 4.1491,3.5745 1.6849,0.9765 3.352,1.5707 5.0108,1.7969 1.6591,0.2262 3.2168,0.03 4.6644,-0.6018 1.4539,-0.6282 2.634,-1.5483 3.5431,-2.7493 0.9059,-1.2118 2.3006,-3.4342 4.1765,-6.6708 z m -14.1919,5.5888 c -0.8459,1.4593 -1.4675,2.3485 -1.8652,2.6674 -0.3937,0.3126 -0.8379,0.3297 -1.3286,0.0451 -0.4181,-0.2421 -0.6404,-0.5925 -0.6738,-1.0548 -0.0301,-0.4521 0.4221,-1.4922 1.3603,-3.111 l 8.5156,-14.692 c 1.0573,-1.8241 1.7838,-2.9095 2.1759,-3.2494 0.3957,-0.3464 0.8569,-0.3625 1.3878,-0.055 0.5437,0.3153 0.7532,0.7643 0.6211,1.3437 -0.1318,0.5791 -0.7393,1.7954 -1.8119,3.6462 z m 44.2122,-8.4997 -7.209,-3.2604 -6.821,15.0817 2.3363,-17.1099 -7.5025,-3.3931 -14.9941,33.1529 7.209,3.2604 6.7672,-14.9627 -1.9471,17.1428 7.1671,3.2415 z m 17.8149,27.7517 -8.954,-3.1008 -2.0674,5.9695 c -0.602,1.7388 -1.0703,2.7853 -1.4091,3.155 -0.3361,0.3622 -0.8316,0.434 -1.4765,0.2106 -0.7246,-0.2509 -1.0979,-0.6724 -1.1129,-1.2614 -0.0122,-0.5967 0.2775,-1.7621 0.8796,-3.5008 l 5.5247,-15.9526 c 0.5794,-1.6732 1.0573,-2.7246 1.4309,-3.1716 0.3711,-0.4394 0.9009,-0.5398 1.5818,-0.3039 0.6596,0.2285 1.0063,0.6324 1.0312,1.2169 0.0269,0.5774 -0.288,1.815 -0.9428,3.706 l -1.4978,4.3251 8.9543,3.1008 0.4641,-1.3402 c 1.2345,-3.5643 1.8564,-6.1804 1.8708,-7.8386 0.0171,-1.6654 -0.6471,-3.356 -1.9751,-5.0735 -1.3354,-1.72 -3.2576,-3.0104 -5.7787,-3.8837 -2.6153,-0.9057 -4.9374,-1.1824 -6.9682,-0.8229 -2.0239,0.362 -3.6082,1.2821 -4.7409,2.7723 -1.1327,1.4896 -2.2811,3.9155 -3.4475,7.2841 l -3.4776,10.0412 c -0.8577,2.4775 -1.4133,4.3622 -1.6758,5.6588 -0.2551,1.2991 -0.1689,2.6674 0.282,4.1057 0.444,1.4355 1.2969,2.7451 2.5609,3.9212 1.2642,1.1761 2.8681,2.0965 4.8095,2.7689 2.63,0.9107 4.9791,1.1565 7.0495,0.7296 2.0611,-0.4224 3.623,-1.3011 4.6933,-2.6342 1.0627,-1.3357 2.149,-3.6049 3.2604,-6.814 z m 1.9372,16.5303 9.2336,2.1308 3.4997,-14.9604 c 1.7005,0.4396 2.3595,1.6067 1.9845,3.503 l -1.4244,6.9574 c -0.5281,2.5611 -0.4332,4.4005 0.288,5.5034 l 8.5158,1.9653 c -0.6233,-1.0488 -0.6145,-2.9273 0.0227,-5.6205 l 1.4479,-6.0707 c 0.8782,-3.6686 -0.7064,-6.2453 -4.765,-7.7168 4.2931,0.4559 6.8533,-1.1959 7.6856,-4.9379 l 1.2569,-5.6503 c 0.6057,-2.6929 1.4502,-4.5122 2.5341,-5.4581 l -8.5161,-1.9653 c -1.1911,0.6616 -2.0826,2.2731 -2.6722,4.828 l -1.5948,6.9103 c -0.2032,0.8813 -0.6267,1.5233 -1.2719,1.9329 -0.6531,0.4079 -1.3966,0.5276 -2.2292,0.3512 l 3.4203,-15.0258 -9.2333,-2.1308 z m 51.8964,-12.8707 c 0.4476,-3.6295 0.6801,-6.2039 0.6908,-7.7321 0.0193,-1.535 -0.3432,-2.9778 -1.0873,-4.3364 -0.7438,-1.3587 -1.8431,-2.4676 -3.2902,-3.3259 -1.4465,-0.8581 -3.1859,-1.4125 -5.2175,-1.6631 -1.9326,-0.2384 -3.6994,-0.1318 -5.3143,0.3104 -1.6147,0.4419 -2.9716,1.2325 -4.0553,2.3811 -1.0919,1.1477 -1.8173,2.4562 -2.183,3.9175 -0.3588,1.47 -0.771,4.0609 -1.2288,7.7743 l -0.7619,6.1786 c -0.4476,3.6295 -0.6803,6.204 -0.6911,7.7321 -0.0196,1.535 0.3435,2.9778 1.0874,4.3364 0.7441,1.3584 1.8433,2.4673 3.2898,3.3257 1.4471,0.858 3.1862,1.4125 5.2181,1.663 1.9326,0.2384 3.6992,0.1319 5.3138,-0.3101 1.6152,-0.4419 2.9718,-1.2325 4.0558,-2.3814 1.0919,-1.1474 1.817,-2.4562 2.1827,-3.9174 0.3588,-1.4698 0.7713,-4.0609 1.2291,-7.774 z m -10.8674,10.7027 c -0.2067,1.6739 -0.4303,2.7358 -0.671,3.1851 -0.2401,0.4416 -0.642,0.6312 -1.205,0.5618 -0.4793,-0.059 -0.8212,-0.2943 -1.0329,-0.7067 -0.205,-0.4039 -0.1965,-1.5381 0.0323,-3.3951 l 2.0786,-16.8536 c 0.258,-2.0926 0.5015,-3.3758 0.7288,-3.8421 0.2285,-0.474 0.6463,-0.6695 1.2552,-0.5944 0.6236,0.0768 0.9924,0.4079 1.0981,0.9927 0.1055,0.5845 0.0233,1.9417 -0.2386,4.0646 z m 15.2447,10.5565 9.4107,0.2733 c 2.9733,0.0865 5.2331,-0.0779 6.7794,-0.5012 1.546,-0.4152 2.8074,-1.322 3.791,-2.7045 0.9834,-1.3907 1.5171,-3.6533 1.6084,-6.7952 0.0615,-2.1226 -0.2251,-3.6111 -0.8674,-4.4657 -0.6423,-0.8626 -1.942,-1.5367 -3.8908,-2.0461 2.2062,-0.4342 3.7168,-1.2112 4.5317,-2.3303 0.815,-1.1268 1.2569,-2.8707 1.3258,-5.2461 l 0.0978,-3.3718 c 0.0714,-2.4602 -0.159,-4.2846 -0.6843,-5.4884 -0.525,-1.1968 -1.3907,-2.0348 -2.6039,-2.5073 -1.2132,-0.4725 -3.7211,-0.76 -7.522,-0.8702 l -10.9205,-0.3172 z m 9.6522,-5.9323 0.235,-8.0926 c 0.398,0.0269 0.7044,0.0436 0.9267,0.0499 0.9042,0.0263 1.48,0.2729 1.7121,0.7324 0.2395,0.4669 0.324,1.781 0.2616,3.9345 -0.0331,1.1418 -0.1561,1.9358 -0.3764,2.3899 -0.22,0.4462 -0.4966,0.7294 -0.8297,0.8425 -0.3328,0.1054 -0.9785,0.1556 -1.9293,0.1434 z m 0.3994,-13.7483 0.2963,-10.2076 c 1.3016,0.0839 2.1308,0.315 2.48,0.7008 0.3492,0.386 0.4986,1.3183 0.4558,2.7898 l -0.0986,3.4027 c -0.0454,1.5633 -0.2339,2.5013 -0.5655,2.829 -0.3314,0.3203 -1.1875,0.4793 -2.568,0.4853 z m 39.0473,-3.3616 c -0.2775,-3.6465 -0.5581,-6.2164 -0.849,-7.7165 -0.284,-1.5083 -0.9244,-2.8511 -1.9222,-4.0362 -0.9975,-1.1852 -2.2938,-2.0554 -3.8817,-2.611 -1.5877,-0.5559 -3.4022,-0.756 -5.4431,-0.6004 -1.9417,0.1477 -3.6527,0.6009 -5.1486,1.353 -1.4958,0.7523 -2.6699,1.7951 -3.5056,3.1348 -0.8439,1.3408 -1.2965,2.7669 -1.3666,4.2715 -0.0618,1.512 0.0457,4.1332 0.33,7.8636 l 0.4725,6.2076 c 0.2775,3.6465 0.5579,6.2161 0.8487,7.7165 0.284,1.5086 0.925,2.8513 1.9222,4.0365 0.9978,1.1846 2.2941,2.0548 3.8818,2.6104 1.5879,0.5559 3.4021,0.756 5.4433,0.6007 1.9418,-0.148 3.6525,-0.6012 5.1483,-1.353 1.4961,-0.752 2.67,-1.7949 3.5059,-3.1351 0.8439,-1.3405 1.2963,-2.7666 1.3663,-4.2712 0.0618,-1.5118 -0.0454,-4.1332 -0.3294,-7.8636 z m -8.5411,12.6371 c 0.1281,1.6818 0.1182,2.7669 -0.0292,3.2548 -0.1479,0.4804 -0.5045,0.7458 -1.0701,0.7888 -0.4816,0.0366 -0.8631,-0.1264 -1.1522,-0.4887 -0.2807,-0.3557 -0.4964,-1.4692 -0.6384,-3.3346 l -1.2892,-16.9325 c -0.1602,-2.1025 -0.1749,-3.4084 -0.0439,-3.9104 0.1304,-0.51 0.5014,-0.7841 1.1131,-0.8306 0.6268,-0.0476 1.0537,0.2041 1.2725,0.7566 0.2188,0.5522 0.4059,1.8987 0.5684,4.0317 z m 24.7485,-12.7871 -1.1234,-6.1543 -11.6753,2.1311 1.1233,6.1543 z m 26.361,-4.1187 -9.1216,2.5673 1.7116,6.0812 c 0.4986,1.7711 0.712,2.8976 0.6449,3.3945 -0.0692,0.4895 -0.4349,0.8314 -1.0917,1.0162 -0.7381,0.2078 -1.2852,0.0748 -1.6341,-0.4003 -0.3507,-0.4824 -0.7781,-1.6049 -1.2768,-3.376 l -4.5742,-16.2505 c -0.4796,-1.7047 -0.688,-2.8409 -0.6364,-3.4208 0.0539,-0.5726 0.4314,-0.9576 1.1251,-1.1529 0.6718,-0.189 1.1871,-0.0555 1.5412,0.4102 0.352,0.4586 0.8002,1.6543 1.3425,3.5804 l 1.2401,4.4059 9.1216,-2.5673 -0.3844,-1.3652 c -1.0221,-3.6309 -2.0055,-6.1339 -2.9403,-7.5036 -0.9372,-1.3767 -2.4475,-2.3853 -4.5185,-3.0367 -2.0783,-0.6497 -4.3934,-0.6115 -6.9616,0.1117 -2.6642,0.7497 -4.7284,1.8484 -6.1905,3.3035 -1.4548,1.4527 -2.2298,3.1127 -2.3089,4.9827 -0.0791,1.87 0.3634,4.517 1.3295,7.9486 l 2.8791,10.2286 c 0.7104,2.5239 1.3306,4.3883 1.8556,5.6026 0.5323,1.2121 1.3844,2.2862 2.5758,3.2094 1.1843,0.925 2.6323,1.5132 4.3413,1.7567 1.7096,0.2435 3.5521,0.0833 5.5298,-0.4734 2.6788,-0.754 4.7475,-1.8939 6.2036,-3.4265 1.4508,-1.5237 2.2312,-3.1369 2.3485,-4.8428 0.11,-1.703 -0.2942,-4.1862 -1.2143,-7.4554 z m 17.9847,-28.4253 -8.8027,3.5079 10.7793,27.0493 -2.5639,1.0216 -10.7793,-27.0493 -8.803,3.5082 13.4699,33.8008 20.1697,-8.0376 z m 34.6411,23.728 -11.6524,-34.8922 -8.6196,4.3784 2.5002,6.0562 -3.0416,1.5449 -3.4163,-5.5908 -8.7287,4.4337 20.7572,30.2675 z m -15.0806,-18.6015 c 1.4644,3.8823 3.3531,8.6502 5.6622,14.3135 -4.0005,-5.8101 -6.8391,-10.0953 -8.5266,-12.8585 z m 34.6195,-11.6771 -7.9622,5.1378 3.4254,5.3082 c 0.9975,1.546 1.5332,2.56 1.6152,3.0546 0.0779,0.4881 -0.1713,0.9224 -0.7444,1.2923 -0.6443,0.4159 -1.2064,0.4499 -1.6795,0.0984 -0.4774,-0.358 -1.2161,-1.3048 -2.2139,-2.8508 L 558.877,641.166 c -0.9601,-1.488 -1.4935,-2.5124 -1.6149,-3.0822 -0.117,-0.5632 0.1307,-1.042 0.7362,-1.4326 0.5862,-0.3784 1.118,-0.4025 1.5936,-0.0618 0.4714,0.3348 1.2515,1.3459 2.3366,3.0271 l 2.4818,3.8461 7.9619,-5.1381 -0.7687,-1.1917 c -2.0452,-3.1694 -3.7216,-5.2719 -5.0182,-6.3059 -1.3008,-1.0401 -3.041,-1.5597 -5.2121,-1.573 -2.1775,-0.009 -4.3789,0.7087 -6.6206,2.1555 -2.3255,1.5006 -3.975,3.1581 -4.9442,4.9788 -0.9629,1.8164 -1.2152,3.6311 -0.7407,5.4416 0.4749,1.8102 1.6767,4.21 3.6097,7.2054 l 5.7614,8.9286 c 1.4219,2.2031 2.5631,3.8024 3.422,4.8084 0.8654,1.002 1.9961,1.7776 3.4064,2.3094 1.404,0.5357 2.9611,0.6715 4.6661,0.4014 1.7053,-0.2702 3.4191,-0.9655 5.1454,-2.0795 2.3386,-1.5089 3.9802,-3.2069 4.921,-5.1004 0.9383,-1.8828 1.2092,-3.6544 0.8195,-5.3192 -0.3963,-1.6603 -1.5132,-3.9144 -3.3545,-6.768 z m 27.0309,-0.6275 -18.248,-31.9414 -7.5974,5.9786 3.6357,5.4507 -2.681,2.1098 -4.4433,-4.8152 -7.6935,6.0542 26.2732,25.6264 z M 584.195,627.3884 c 2.1951,3.521 4.9793,7.8276 8.3508,12.9303 -5.059,-4.9161 -8.6805,-8.5638 -10.8754,-10.9437 z m 40.3806,-4.526 -5.0238,-5.2521 -4.0221,3.8472 -20.1268,-21.0421 -6.8477,6.5497 20.1268,21.0421 -4.0555,3.8793 5.0236,5.2523 z m 3.9739,-3.8489 10.349,-11.9104 -5.4862,-4.767 -4.1334,4.7571 -5.2433,-4.5558 3.8619,-4.4445 -5.2086,-4.5258 -3.8617,4.4445 -6.0417,-5.2498 4.5558,-5.2432 -5.4862,-4.767 -10.7713,12.3961 z m -0.6429,-56.4353 -5.86,7.4469 22.8829,18.0066 -1.707,2.169 -16.1892,-12.7394 c -2.1328,-1.6782 -3.8812,-2.6054 -5.2404,-2.7873 -1.37,-0.1803 -2.6025,0.1958 -3.7149,1.1259 -1.1165,0.9354 -2.6359,2.6181 -4.5606,5.0641 l -0.915,1.163 4.9164,3.8687 c 0.7157,-0.9099 1.3186,-1.4402 1.8116,-1.6086 0.4932,-0.1678 1.3912,0.2656 2.6986,1.2943 l 21.0452,16.5606 13.4269,-17.0626 z m 20.3701,-18.0748 c -2.3415,-1.3572 -4.2033,-2.0285 -5.5783,-2.0103 -1.378,0.008 -2.5529,0.5675 -3.5266,1.6512 -0.978,1.0904 -2.2524,2.9834 -3.8208,5.6897 l -5.4865,9.4654 31.4804,18.2463 4.752,-8.1986 -10.7852,-6.2513 0.7344,-1.2668 c 1.4607,-2.5205 2.4262,-4.5221 2.8772,-5.9887 0.451,-1.4664 0.3558,-2.8151 -0.2928,-4.0507 -0.6418,-1.2314 -2.056,-2.4767 -4.2316,-3.7378 z m -3.8036,8.7483 4.5505,2.6373 c 1.3263,0.7691 2.0523,1.3669 2.1838,1.7975 0.1315,0.4306 -0.1477,1.2793 -0.8308,2.5489 l -10.3473,-5.9975 c 0.6035,-1.0412 1.1437,-1.6674 1.6205,-1.8783 0.4802,-0.218 1.4239,0.0808 2.8233,0.8921 z m 40.2288,-20.7153 -33.1532,-14.9942 -3.9047,8.6344 13.9147,6.2932 -1.1373,2.5146 -13.915,-6.2932 -3.9047,8.634 33.1529,14.9942 3.905,-8.6344 -11.8613,-5.3645 1.1373,-2.5146 11.8613,5.3645 z M 668.0974,495.381 c -2.6051,-0.7333 -4.5754,-0.9213 -5.9029,-0.5621 -1.3329,0.3495 -2.3321,1.1834 -3.0062,2.4749 -0.6763,1.2991 -1.4411,3.4492 -2.2886,6.4602 l -2.9642,10.5312 35.0248,9.8589 2.5677,-9.1216 -11.9997,-3.3777 0.3969,-1.4097 c 0.7892,-2.804 1.2274,-4.9828 1.3,-6.5154 0.0731,-1.5325 -0.3541,-2.8154 -1.2889,-3.8512 -0.9278,-1.0335 -2.6068,-1.8887 -5.0273,-2.5702 z m -1.5123,9.4189 5.0626,1.425 c 1.4758,0.4153 2.3273,0.8144 2.5617,1.1988 0.2342,0.3844 0.1743,1.2759 -0.1718,2.6756 l -11.5126,-3.2408 c 0.3263,-1.1586 0.6939,-1.8993 1.1035,-2.2218 0.4113,-0.3306 1.3992,-0.2753 2.9566,0.1632 z m -3.2395,-23.9456 -2.5676,9.1216 35.0252,9.8589 2.5673,-9.1214 z m 4.4411,-24.1251 -1.4207,7.7836 16.2833,2.9721 -17.1672,1.8698 -1.4785,8.1003 35.7944,6.5338 1.4208,-7.7834 -16.155,-2.9488 17.1049,-2.2553 1.4125,-7.7383 z m 42.1942,15.7915 0.6857,-3.7559 c -2.0301,-0.277 -3.7502,0.009 -5.178,0.8708 -1.4275,0.8617 -2.3125,2.251 -2.6649,4.1817 -0.3551,1.9459 -0.0119,3.5671 1.0293,4.8639 1.0341,1.2955 2.5433,2.1634 4.5255,2.6184 l 0.6854,-3.7559 c -1.9879,-0.5499 -2.8474,-1.5639 -2.575,-3.0572 0.2742,-1.5009 1.4392,-2.1614 3.492,-1.9658 z m -25.2907,-48.8129 c -3.6555,-0.1069 -6.2404,-0.0978 -7.7629,0.034 -1.5299,0.1242 -2.9325,0.62 -4.216,1.4879 -1.2832,0.8674 -2.2847,2.0651 -3.0042,3.5861 -0.7191,1.5205 -1.1086,3.3038 -1.1684,5.3499 -0.057,1.9465 0.2143,3.6958 0.805,5.2622 0.5911,1.5664 1.505,2.8434 2.7497,3.8154 1.2446,0.98 2.6152,1.5801 4.1042,1.8074 1.497,0.2203 4.1151,0.3886 7.8548,0.4978 l 6.2229,0.1817 c 3.6553,0.1066 6.2402,0.0981 7.763,-0.034 1.5299,-0.1242 2.9324,-0.6203 4.2157,-1.4877 1.2832,-0.8676 2.2847,-2.0656 3.0039,-3.5861 0.7194,-1.5208 1.1089,-3.304 1.1687,-5.3504 0.0567,-1.9465 -0.2143,-3.6952 -0.8051,-5.2619 -0.5907,-1.5667 -1.5046,-2.8435 -2.7496,-3.8157 -1.2444,-0.9797 -2.6152,-1.5795 -4.1042,-1.8071 -1.4967,-0.22 -4.1151,-0.3887 -7.8546,-0.4978 z m 11.6706,9.8206 c 1.686,0.0494 2.764,0.173 3.2337,0.3708 0.4621,0.1973 0.6886,0.58 0.6721,1.1472 -0.0142,0.4827 -0.2163,0.845 -0.6072,1.0945 -0.3829,0.2417 -1.5131,0.339 -3.3831,0.2845 l -16.9744,-0.4957 c -2.1073,-0.0615 -3.4079,-0.184 -3.8934,-0.3668 -0.4933,-0.1832 -0.7268,-0.5811 -0.709,-1.1943 0.0185,-0.6281 0.3135,-1.0261 0.8861,-1.186 0.5721,-0.1596 1.931,-0.2044 4.0689,-0.142 z m 8.2374,-35.5853 -7.247,0.552 0.4223,5.5496 -29.0338,2.2108 0.7194,9.4487 29.0339,-2.2108 0.4263,5.5959 7.2471,-0.5519 z m -0.4067,-3.8389 -1.1665,-9.4581 c -0.3155,-2.5568 -0.7551,-4.4957 -1.3286,-5.8229 -0.572,-1.3198 -1.2781,-2.2836 -2.1166,-2.8831 -0.8464,-0.5984 -1.8244,-0.9491 -2.9282,-1.0678 -1.1106,-0.1103 -2.7919,-0.0267 -5.0519,0.252 l -3.1425,0.3877 c -2.2978,0.2832 -3.9504,0.7268 -4.9411,1.3357 -0.9998,0.6021 -1.7059,1.5775 -2.1132,2.9101 -0.4065,1.3399 -0.483,3.0336 -0.2307,5.0805 l 0.3106,2.5183 -14.5638,1.796 1.1599,9.4051 z m -7.3233,-8.6448 -9.1996,1.1344 c -0.0479,-0.2642 -0.0836,-0.4918 -0.1072,-0.682 -0.106,-0.8598 0.0341,-1.4797 0.4187,-1.8669 0.3785,-0.3787 1.2402,-0.6551 2.5793,-0.8204 l 2.9752,-0.3668 c 1.2328,-0.1519 2.0628,-0.0612 2.4834,0.2809 0.4199,0.3345 0.7008,1.1109 0.8502,2.3208 z m -37.0902,-30.2341 2.1429,9.2308 15.952,-3.7035 c 0.2704,1.165 0.2514,1.9641 -0.0572,2.3981 -0.3011,0.432 -1.1126,0.8014 -2.4268,1.1064 l -12.8228,2.9769 1.9868,8.5584 10.5676,-2.4534 c 1.792,-0.4161 3.1362,-0.8306 4.0229,-1.2487 0.8884,-0.411 1.5593,-1.0468 2.0052,-1.9057 0.4459,-0.8592 0.6903,-2.1124 0.7404,-3.7613 0.6792,2.0778 1.603,3.3114 2.7587,3.7123 1.1611,0.3914 3.0563,0.282 5.6775,-0.3266 2.3675,-0.5493 4.1443,-1.2691 5.3459,-2.162 1.2016,-0.8926 1.9599,-1.9658 2.2858,-3.2065 0.326,-1.2405 0.3878,-2.6008 0.171,-4.0774 -0.2075,-1.4709 -0.6733,-3.7474 -1.3876,-6.8241 l -1.5188,-6.5424 z m 23.6511,4.2375 7.8415,-1.8207 0.1023,0.4405 c 0.1786,0.7694 0.142,1.3919 -0.1097,1.8672 -0.2514,0.4757 -0.9385,0.8399 -2.0662,1.1016 l -1.9491,0.4524 c -1.3144,0.3053 -2.2113,0.3404 -2.6835,0.1037 -0.4794,-0.235 -0.8581,-0.9499 -1.1353,-2.1447 z m -40.3242,-30.6997 2.4182,6.0681 5.8116,-2.3159 5.6534,14.1868 -5.8116,2.3159 2.4182,6.0679 12.8625,-5.1256 -0.7152,-1.7947 c 2.3931,-2.0514 5.7201,-4.2854 9.9942,-6.6897 4.274,-2.4047 9.0875,-4.6778 14.4362,-6.8094 l 1.0256,-0.4088 -7.7652,-19.4856 -26.7078,10.643 -0.7151,-1.7947 z m 17.1283,5.4547 20.0412,-7.9867 1.0389,2.6068 -0.2494,0.0992 c -6.4738,2.5801 -12.7905,5.9063 -18.9576,9.9814 z" /><path
         id="path50"
         style="fill:#b1cb22;fill-opacity:1;fill-rule:nonzero;stroke:none"
         d="m 350.8438,196.0988 c 1.8096,-0.6046 3.132,-1.7014 3.9677,-3.2899 0.8356,-1.5888 0.9482,-3.2964 0.3379,-5.123 -0.6103,-1.827 -1.7269,-3.1238 -3.3497,-3.8912 -1.6229,-0.7673 -3.3387,-0.8484 -5.1483,-0.2437 l -2.3817,0.7956 -1.7969,-5.3778 -4.5839,1.5315 5.9893,17.9257 z m -2.738,-8.1947 c 0.5122,-0.1709 1.0029,-0.1358 1.4729,0.1058 0.4697,0.2418 0.7988,0.644 0.987,1.2075 0.1883,0.5633 0.1659,1.0786 -0.0671,1.5455 -0.2333,0.4668 -0.6058,0.7857 -1.118,0.9569 l -2.3814,0.7957 -1.275,-3.8157 z m 11.9016,-9.4274 7.0463,-1.9707 -1.2217,-4.3685 -11.7009,3.2726 5.0908,18.2016 11.5707,-3.236 -1.2143,-4.3424 -6.9166,1.9343 -0.7052,-2.5222 6.2662,-1.7527 -1.1999,-4.2902 -6.2662,1.7526 z m 17.8693,-9.0545 c -2.7964,0.5185 -4.9388,1.8723 -6.4278,4.0618 -1.4888,2.1892 -1.9772,4.6641 -1.4653,7.4251 0.512,2.7609 1.8553,4.896 4.03,6.406 2.1751,1.5097 4.6602,2.0055 7.4566,1.487 1.6815,-0.3118 3.1651,-0.9989 4.4509,-2.061 1.2861,-1.0625 2.2113,-2.3414 2.776,-3.8376 l -4.553,-1.5996 c -0.2327,0.7206 -0.663,1.3357 -1.2918,1.846 -0.6284,0.5099 -1.3762,0.8455 -2.2436,1.0063 -1.4865,0.2758 -2.7717,0.0334 -3.8554,-0.7268 -1.0837,-0.76 -1.7651,-1.8925 -2.044,-3.3965 -0.279,-1.5046 -0.0488,-2.806 0.6902,-3.9039 0.7393,-1.0981 1.8522,-1.7853 3.3386,-2.0608 0.8674,-0.161 1.6858,-0.1156 2.4554,0.1352 0.7696,0.2506 1.3938,0.6795 1.8723,1.2864 l 3.672,-3.1521 c -1.0667,-1.2118 -2.3854,-2.0792 -3.9563,-2.6028 -1.5707,-0.5236 -3.2057,-0.6276 -4.9048,-0.3127 z m 27.6097,15.6204 -2.2626,-18.764 -4.7982,0.5786 1.7033,14.1267 -4.8787,0.5882 -1.703,-14.1267 -4.7985,0.5785 2.2626,18.7639 z m 12.7318,-0.504 4.9386,-0.1557 -5.8635,-12.9166 c -0.9284,-2.0239 -2.1044,-3.4906 -3.5289,-4.4002 -1.4244,-0.9097 -3.1606,-1.2875 -5.2086,-1.1327 l 0.142,4.5068 c 1.7048,-0.1976 2.9786,0.2213 3.8214,1.2574 l -5.7702,13.2021 4.9654,-0.1565 3.2383,-7.8276 z m 14.4474,-6.9517 c 1.925,0.0618 3.4806,-0.4286 4.6667,-1.4709 1.186,-1.0426 1.8079,-2.4633 1.8657,-4.2625 0.0578,-1.7991 -0.4714,-3.2658 -1.5877,-4.4005 -1.116,-1.1341 -2.6365,-1.7322 -4.5618,-1.794 l -7.7989,-0.2506 -0.6066,18.8903 12.5217,0.402 0.1497,-4.6684 -7.691,-0.2469 0.0737,-2.2938 z m 0.0518,-7.5084 c 0.5219,0.0167 0.936,0.1604 1.2422,0.4317 0.3067,0.271 0.4515,0.6672 0.4348,1.1891 -0.0167,0.5216 -0.1868,0.9125 -0.5105,1.1721 -0.3234,0.2597 -0.7461,0.3813 -1.2679,0.3643 l -2.7794,-0.089 0.1015,-3.1575 z m 8.4365,-4.0403 -0.3427,4.4961 c 1.0148,-0.0491 1.7348,0.1547 2.1603,0.6111 0.4255,0.457 0.5879,1.3493 0.4867,2.6773 l -0.8595,11.2805 13.4073,1.0213 1.4358,-18.8453 -4.8192,-0.367 -1.0808,14.1879 -3.769,-0.2871 0.521,-6.8383 c 0.1174,-1.5438 -0.003,-2.8658 -0.3614,-3.9677 -0.3583,-1.1012 -0.8997,-1.9324 -1.6242,-2.4928 -0.7243,-0.5607 -1.5115,-0.9547 -2.3607,-1.1817 -0.849,-0.2274 -1.7805,-0.3254 -2.7936,-0.2943 z m 30.5243,3.6715 -1.7328,9.3447 -4.8243,-10.5605 -3.6901,-0.6843 -3.4458,18.5834 4.752,0.881 1.7328,-9.3447 4.8243,10.5605 3.6638,0.6794 3.4458,-18.5831 z m 23.9298,5.2597 -5.2616,-1.2144 -7.1884,7.014 1.9003,-8.2346 -4.7092,-1.0868 -4.2502,18.4158 4.7092,1.0871 1.7849,-7.7346 3.2398,8.8943 5.2616,1.2143 -3.7757,-10.2928 z m 12.1893,4.0677 -3.1572,8.964 -3.1329,-11.1796 -3.5399,-1.2469 -6.2787,17.8268 4.5586,1.6055 3.1573,-8.9643 3.1328,11.1796 3.5144,1.2379 6.2788,-17.8266 z" /><path
         id="path52"
         style="fill:#b1cb22;fill-opacity:1;fill-rule:nonzero;stroke:none"
         d="m 376.5135,142.7709 -5.3053,1.0069 -1.9814,5.4878 -3.8543,-4.3803 -5.332,1.0119 7.3942,8.4079 -3.6581,10.1205 5.332,-1.012 1.8345,-5.1023 3.5768,4.0753 5.332,-1.0116 -7.1167,-8.1034 z m 14.309,-2.0319 -0.4892,2.8024 -6.2487,0.7276 -1.1203,-2.615 -5.2027,0.6058 8.3812,18.0519 5.8465,-0.6809 4.0093,-19.4944 z m -5.0235,7.5167 3.7817,-0.4406 -1.1611,6.6045 z m 28.2268,-9.4893 -5.3844,0.4107 -4.7687,8.839 -0.6427,-8.4265 -4.8189,0.3676 1.4369,18.8453 4.8192,-0.3676 -0.6035,-7.9149 5.7453,7.5228 5.3844,-0.4104 -6.6745,-8.6978 z m 14.6219,-0.3702 -0.7131,2.7538 -6.287,0.2229 -0.906,-2.6966 -5.2347,0.1853 6.9021,18.6673 5.8821,-0.208 5.5645,-19.109 z m -5.6117,7.0883 3.8047,-0.1349 -1.6884,6.4896 z m 21.7018,-6.4729 c -2.8358,-0.2163 -5.2538,0.5428 -7.2545,2.2768 -2.0007,1.7339 -3.1076,4.0008 -3.321,6.8006 -0.2138,2.8 0.5368,5.2084 2.2515,7.2255 1.7147,2.0174 3.9898,3.134 6.8256,3.3503 1.705,0.1301 3.3154,-0.1534 4.8305,-0.8502 1.5154,-0.697 2.738,-1.6959 3.6675,-2.997 l -3.9901,-2.7142 c -0.4096,0.6369 -0.9836,1.1211 -1.722,1.4528 -0.7382,0.3316 -1.5472,0.4643 -2.4268,0.3971 -1.5077,-0.1148 -2.6875,-0.6789 -3.5399,-1.6917 -0.8526,-1.0126 -1.2206,-2.2816 -1.1044,-3.8072 0.1165,-1.5256 0.6727,-2.7244 1.6688,-3.5961 0.9961,-0.8719 2.2479,-1.2503 3.7556,-1.1352 0.8796,0.0671 1.6591,0.3206 2.3386,0.7605 0.6795,0.4399 1.1727,1.0145 1.4797,1.7237 l 4.3577,-2.1044 c -0.7203,-1.4451 -1.7722,-2.6218 -3.1564,-3.5308 -1.3839,-0.9088 -2.9373,-1.429 -4.6604,-1.5605 z m 21.2357,2.4925 -1.0993,9.4402 -5.5247,-10.2115 -3.7278,-0.434 -2.1861,18.773 4.8007,0.559 1.0993,-9.4402 5.5247,10.2115 3.7012,0.4312 2.1858,-18.7733 z m 18.9635,22.6344 3.5238,-18.5687 -4.7217,-0.896 -1.1378,5.995 -1.008,-0.1914 -2.6025,-6.7047 -5.2787,-1.0018 2.9806,7.4636 c -1.1936,0.3047 -2.2059,0.8822 -3.0359,1.7323 -0.83,0.8501 -1.3592,1.8765 -1.5874,3.0792 -0.3523,1.8567 -0.007,3.5116 1.0366,4.9646 1.0435,1.4531 2.511,2.359 4.4034,2.7182 z m -5.7538,-9.9411 2.6527,0.5034 -0.7903,4.1646 -2.6527,-0.5034 c -0.5658,-0.1074 -1.0012,-0.3963 -1.3059,-0.866 -0.3044,-0.4702 -0.3999,-1.006 -0.2857,-1.6072 0.1173,-0.6188 0.4031,-1.0868 0.8572,-1.4037 0.4538,-0.3169 0.9624,-0.4128 1.5247,-0.2877" /></g></g></svg>